<svg width="27" height="28" viewBox="0 0 27 28" fill="none" xmlns="http://www.w3.org/2000/svg">
<path d="M23.4375 0.875H2.8125C1.25918 0.875 0 2.13418 0 3.6875V24.3125C0 25.8658 1.25918 27.125 2.8125 27.125H23.4375C24.9908 27.125 26.25 25.8658 26.25 24.3125V3.6875C26.25 2.13418 24.9908 0.875 23.4375 0.875ZM23.4375 24.3125H2.8125V3.6875H23.4375V24.3125ZM21.3361 10.149L11.2235 20.1805C10.9478 20.4539 10.5026 20.4522 10.2291 20.1765L4.90992 14.8142C4.63646 14.5385 4.63822 14.0933 4.91396 13.8198L6.24516 12.4994C6.52084 12.2259 6.96604 12.2277 7.23949 12.5034L10.7429 16.0353L19.0253 7.81947C19.301 7.54602 19.7462 7.54777 20.0196 7.82346L21.3401 9.15459C21.6135 9.43033 21.6118 9.87553 21.3361 10.149Z" fill="#E67919"/>
</svg>
