<svg width="27" height="28" viewBox="0 0 27 28" fill="none" xmlns="http://www.w3.org/2000/svg">
<path d="M13.1309 7.26172C9.4043 7.26172 6.39844 10.2676 6.39844 13.9941C6.39844 17.7207 9.4043 20.7266 13.1309 20.7266C16.8574 20.7266 19.8633 17.7207 19.8633 13.9941C19.8633 10.2676 16.8574 7.26172 13.1309 7.26172ZM13.1309 18.3711C10.7227 18.3711 8.75391 16.4082 8.75391 13.9941C8.75391 11.5801 10.7168 9.61719 13.1309 9.61719C15.5449 9.61719 17.5078 11.5801 17.5078 13.9941C17.5078 16.4082 15.5391 18.3711 13.1309 18.3711ZM21.709 6.98633C21.709 7.85937 21.0059 8.55664 20.1387 8.55664C19.2656 8.55664 18.5684 7.85352 18.5684 6.98633C18.5684 6.11914 19.2715 5.41602 20.1387 5.41602C21.0059 5.41602 21.709 6.11914 21.709 6.98633ZM26.168 8.58008C26.0683 6.47656 25.5879 4.61328 24.0469 3.07812C22.5117 1.54297 20.6484 1.0625 18.5449 0.957031C16.3769 0.833984 9.87891 0.833984 7.71094 0.957031C5.61328 1.05664 3.75 1.53711 2.20899 3.07227C0.667974 4.60742 0.193365 6.4707 0.0878963 8.57422C-0.0351505 10.7422 -0.0351505 17.2402 0.0878963 19.4082C0.187506 21.5117 0.667974 23.375 2.20899 24.9102C3.75 26.4453 5.60742 26.9258 7.71094 27.0312C9.87891 27.1543 16.3769 27.1543 18.5449 27.0312C20.6484 26.9316 22.5117 26.4512 24.0469 24.9102C25.582 23.375 26.0625 21.5117 26.168 19.4082C26.291 17.2402 26.291 10.748 26.168 8.58008ZM23.3672 21.7344C22.9101 22.8828 22.0254 23.7676 20.8711 24.2305C19.1426 24.916 15.041 24.7578 13.1309 24.7578C11.2207 24.7578 7.11328 24.9102 5.39063 24.2305C4.24219 23.7734 3.35743 22.8887 2.89454 21.7344C2.20899 20.0059 2.36719 15.9043 2.36719 13.9941C2.36719 12.084 2.21485 7.97656 2.89454 6.25391C3.35157 5.10547 4.23633 4.2207 5.39063 3.75781C7.11914 3.07227 11.2207 3.23047 13.1309 3.23047C15.041 3.23047 19.1484 3.07812 20.8711 3.75781C22.0195 4.21484 22.9043 5.09961 23.3672 6.25391C24.0527 7.98242 23.8945 12.084 23.8945 13.9941C23.8945 15.9043 24.0527 20.0117 23.3672 21.7344Z" fill="black"/>
</svg>
