<svg width="30" height="25" viewBox="0 0 30 25" fill="none" xmlns="http://www.w3.org/2000/svg">
<path d="M26.9162 6.0723C26.9353 6.33879 26.9353 6.60533 26.9353 6.87182C26.9353 14.9999 20.7488 24.3654 9.44162 24.3654C5.95811 24.3654 2.72209 23.3565 0 21.6053C0.494941 21.6624 0.970781 21.6814 1.48477 21.6814C4.35908 21.6814 7.00506 20.7107 9.11801 19.0546C6.41496 18.9974 4.14973 17.2271 3.36926 14.7906C3.75 14.8477 4.13068 14.8857 4.53047 14.8857C5.08248 14.8857 5.63455 14.8096 6.14848 14.6764C3.33123 14.1053 1.21822 11.6307 1.21822 8.64211V8.566C2.03672 9.02285 2.98857 9.30838 3.99738 9.34641C2.34129 8.24232 1.25631 6.35783 1.25631 4.22584C1.25631 3.08373 1.56082 2.03678 2.09385 1.12307C5.12051 4.85402 9.67002 7.29053 14.7715 7.55707C14.6763 7.10021 14.6192 6.62438 14.6192 6.14848C14.6192 2.76012 17.3603 0 20.7677 0C22.538 0 24.1369 0.742383 25.2601 1.94162C26.6496 1.67514 27.9821 1.16115 29.1623 0.456856C28.7054 1.88455 27.7346 3.08379 26.4593 3.84516C27.6966 3.71197 28.8959 3.36926 29.9999 2.89342C29.1625 4.11164 28.1154 5.19662 26.9162 6.0723Z" fill="black"/>
</svg>
